<svg width="180" height="280" viewBox="0 0 180 280" fill="none" xmlns="http://www.w3.org/2000/svg">
<path d="M106.576 254V189.039H119.8V242.965H152.683V254H106.576Z" fill="white"/>
<path d="M40.2295 254V188.503H53.0966L79.9031 232.242V188.503H92.1894V254H78.9202L52.5158 211.288V254H40.2295Z" fill="white"/>
<path d="M89.0599 19.7529C89.3725 18.8602 90.635 18.8602 90.9476 19.7529L94.8725 30.9614C95.0102 31.3546 95.3772 31.6212 95.7936 31.6307L107.666 31.8999C108.612 31.9213 109.002 33.122 108.25 33.6951L98.8027 40.8916C98.4713 41.144 98.3311 41.5754 98.4509 41.9744L101.864 53.3494C102.136 54.2553 101.114 54.9973 100.337 54.4589L90.573 47.698C90.2306 47.4609 89.7769 47.4609 89.4345 47.698L79.6709 54.4589C78.8933 54.9973 77.872 54.2553 78.1438 53.3494L81.5566 41.9744C81.6764 41.5754 81.5362 41.144 81.2048 40.8916L71.7577 33.6951C71.0053 33.122 71.3955 31.9213 72.341 31.8999L84.2139 31.6307C84.6303 31.6212 84.9973 31.3546 85.135 30.9614L89.0599 19.7529Z" fill="#FFE041"/>
<path d="M89.0599 19.7529C89.3725 18.8602 90.635 18.8602 90.9476 19.7529L94.8725 30.9614C95.0102 31.3546 95.3772 31.6212 95.7936 31.6307L107.666 31.8999C108.612 31.9213 109.002 33.122 108.25 33.6951L98.8027 40.8916C98.4713 41.144 98.3311 41.5754 98.4509 41.9744L101.864 53.3494C102.136 54.2553 101.114 54.9973 100.337 54.4589L90.573 47.698C90.2306 47.4609 89.7769 47.4609 89.4345 47.698L79.6709 54.4589C78.8933 54.9973 77.872 54.2553 78.1438 53.3494L81.5566 41.9744C81.6764 41.5754 81.5362 41.144 81.2048 40.8916L71.7577 33.6951C71.0053 33.122 71.3955 31.9213 72.341 31.8999L84.2139 31.6307C84.6303 31.6212 84.9973 31.3546 85.135 30.9614L89.0599 19.7529Z" fill="#FFE041"/>
<path d="M30.7267 51.5558C29.9454 51.0228 30.2721 49.8034 31.2153 49.7325L43.0577 48.8423C43.4731 48.811 43.8257 48.5256 43.9426 48.1257L47.2755 36.7272C47.541 35.8193 48.8017 35.7533 49.1606 36.6284L53.6667 47.6161C53.8248 48.0015 54.2052 48.2486 54.6216 48.2362L66.4923 47.8837C67.4377 47.8556 67.8901 49.0342 67.1687 49.6459L58.1112 57.327C57.7935 57.5964 57.6761 58.0346 57.8166 58.4268L61.82 69.6075C62.1389 70.4979 61.1578 71.2924 60.3531 70.7954L50.2491 64.5548C49.8947 64.3359 49.4417 64.3596 49.1121 64.6144L39.7157 71.877C38.9674 72.4554 37.9086 71.7678 38.1326 70.8489L40.9455 59.3109C41.0442 58.9062 40.8816 58.4827 40.5375 58.248L30.7267 51.5558Z" fill="#FFE041"/>
<path d="M165.334 89.5192C166.279 89.5365 166.675 90.7355 165.925 91.3119L156.509 98.5497C156.179 98.8036 156.041 99.2356 156.162 99.6341L159.625 110.994C159.901 111.899 158.883 112.645 158.103 112.11L148.31 105.392C147.966 105.156 147.512 105.158 147.171 105.397L137.437 112.201C136.662 112.743 135.637 112.005 135.905 111.098L139.268 99.7081C139.386 99.3086 139.244 98.8778 138.912 98.6268L129.433 91.4718C128.678 90.902 129.063 89.6996 130.009 89.674L141.88 89.3528C142.296 89.3415 142.662 89.0733 142.798 88.6795L146.674 77.4539C146.983 76.5599 148.245 76.5543 148.562 77.4456L152.536 88.6368C152.675 89.0294 153.043 89.2944 153.46 89.302L165.334 89.5192Z" fill="#FFE041"/>
<path d="M148.792 49.7325C149.736 49.8034 150.062 51.0228 149.281 51.5558L139.47 58.248C139.126 58.4827 138.963 58.9062 139.062 59.3109L141.875 70.8489C142.099 71.7678 141.04 72.4554 140.292 71.8769L130.896 64.6144C130.566 64.3596 130.113 64.3359 129.759 64.5548L119.655 70.7954C118.85 71.2924 117.869 70.4979 118.188 69.6075L122.191 58.4268C122.332 58.0346 122.214 57.5964 121.896 57.327L112.839 49.6459C112.118 49.0342 112.57 47.8556 113.515 47.8837L125.386 48.2362C125.802 48.2486 126.183 48.0015 126.341 47.6161L130.847 36.6284C131.206 35.7533 132.467 35.8193 132.732 36.7271L136.065 48.1257C136.182 48.5256 136.535 48.811 136.95 48.8423L148.792 49.7325Z" fill="#FFE041"/>
<path d="M89.0599 135.146C89.3725 134.254 90.635 134.254 90.9476 135.146L94.8725 146.355C95.0102 146.748 95.3772 147.015 95.7936 147.024L107.666 147.293C108.612 147.315 109.002 148.515 108.25 149.089L98.8027 156.285C98.4713 156.538 98.3311 156.969 98.4509 157.368L101.864 168.743C102.136 169.649 101.114 170.391 100.337 169.852L90.573 163.092C90.2306 162.854 89.7769 162.854 89.4345 163.092L79.6709 169.852C78.8933 170.391 77.872 169.649 78.1438 168.743L81.5566 157.368C81.6764 156.969 81.5362 156.538 81.2048 156.285L71.7577 149.089C71.0053 148.515 71.3955 147.315 72.341 147.293L84.2139 147.024C84.6303 147.015 84.9973 146.748 85.135 146.355L89.0599 135.146Z" fill="#FFE041"/>
<path d="M89.0599 135.146C89.3725 134.254 90.635 134.254 90.9476 135.146L94.8725 146.355C95.0102 146.748 95.3772 147.015 95.7936 147.024L107.666 147.293C108.612 147.315 109.002 148.515 108.25 149.089L98.8027 156.285C98.4713 156.538 98.3311 156.969 98.4509 157.368L101.864 168.743C102.136 169.649 101.114 170.391 100.337 169.852L90.573 163.092C90.2306 162.854 89.7769 162.854 89.4345 163.092L79.6709 169.852C78.8933 170.391 77.872 169.649 78.1438 168.743L81.5566 157.368C81.6764 156.969 81.5362 156.538 81.2048 156.285L71.7577 149.089C71.0053 148.515 71.3955 147.315 72.341 147.293L84.2139 147.024C84.6303 147.015 84.9973 146.748 85.135 146.355L89.0599 135.146Z" fill="#FFE041"/>
<path d="M112.322 133.151C111.541 132.618 111.868 131.399 112.811 131.328L124.653 130.438C125.069 130.407 125.421 130.121 125.538 129.721L128.871 118.323C129.136 117.415 130.397 117.349 130.756 118.224L135.262 129.212C135.42 129.597 135.801 129.844 136.217 129.832L148.088 129.479C149.033 129.451 149.486 130.63 148.764 131.242L139.707 138.923C139.389 139.192 139.272 139.63 139.412 140.022L143.416 151.203C143.734 152.094 142.753 152.888 141.949 152.391L131.845 146.15C131.49 145.931 131.037 145.955 130.708 146.21L121.311 153.473C120.563 154.051 119.504 153.363 119.728 152.444L122.541 140.907C122.64 140.502 122.477 140.078 122.133 139.844L112.322 133.151Z" fill="#FFE041"/>
<path d="M49.9853 89.6374C50.9309 89.661 51.3182 90.8626 50.5645 91.434L41.1008 98.6086C40.7689 98.8603 40.6277 99.2914 40.7465 99.6907L44.1331 111.073C44.4028 111.98 43.3798 112.72 42.6034 112.179L32.8555 105.396C32.5136 105.158 32.0599 105.157 31.7169 105.393L21.9378 112.132C21.1589 112.668 20.1393 111.924 20.4132 111.019L23.8523 99.6517C23.973 99.2529 23.8338 98.8212 23.503 98.568L14.0726 91.3497C13.3215 90.7748 13.7144 89.5751 14.66 89.5558L26.5334 89.314C26.9499 89.3056 27.3175 89.0398 27.4561 88.6469L31.4069 77.4475C31.7216 76.5555 32.984 76.5585 33.2945 77.4518L37.1936 88.6694C37.3304 89.0629 37.6967 89.3304 38.1132 89.3408L49.9853 89.6374Z" fill="#FFE041"/>
<path d="M67.1968 131.328C68.1399 131.399 68.4667 132.618 67.6853 133.151L57.8746 139.843C57.5305 140.078 57.3679 140.502 57.4666 140.906L60.2794 152.444C60.5034 153.363 59.4447 154.051 58.6963 153.472L49.3 146.21C48.9704 145.955 48.5174 145.931 48.163 146.15L38.059 152.391C37.2543 152.888 36.2732 152.093 36.592 151.203L40.5955 140.022C40.7359 139.63 40.6185 139.192 40.3008 138.922L31.2433 131.241C30.522 130.63 30.9744 129.451 31.9198 129.479L43.7904 129.832C44.2068 129.844 44.5873 129.597 44.7453 129.212L49.2515 118.224C49.6104 117.349 50.8711 117.415 51.1365 118.323L54.4695 129.721C54.5864 130.121 54.9389 130.407 55.3543 130.438L67.1968 131.328Z" fill="#FFE041"/>
</svg>
