<?xml version="1.0" encoding="utf-8"?>
<!-- Generator: Adobe Illustrator 23.0.2, SVG Export Plug-In . SVG Version: 6.00 Build 0)  -->
<svg version="1.1" id="Layer_1" xmlns="http://www.w3.org/2000/svg" xmlns:xlink="http://www.w3.org/1999/xlink" x="0px"
     y="0px"
     viewBox="0 0 234 52.4" style="enable-background:new 0 0 234 52.4;" xml:space="preserve">
<style type="text/css">
	.st0{fill:#89B5B3;}
	.st1{fill:#40323B;}
</style>
    <g>
		<path class="st0" d="M165.3,20.4v-3.5h-8.2V0.3h-4.3v20.1H165.3z M138,12.1c1.4-4.6,2.3-7.5,2.6-8.7c0.1,0.3,0.2,0.8,0.4,1.3
		c0.2,0.6,0.9,3,2.3,7.4H138z M150.3,20.4l-7.1-20.2H138l-7.1,20.2h4.6l1.5-4.8h7.3l1.5,4.8H150.3z M117.1,12.1
		c1.4-4.6,2.3-7.5,2.6-8.7c0.1,0.3,0.2,0.8,0.4,1.3c0.2,0.6,0.9,3,2.3,7.4H117.1z M129.5,20.4l-7.1-20.2h-5.2L110,20.4h4.6l1.5-4.8
		h7.3l1.5,4.8H129.5z M107.5,0.3h-3.8v9.5c0,1.1,0.1,2.9,0.2,5.5h-0.1L95,0.3h-5.4v20.1h3.8V11c0-1.1-0.1-3.1-0.3-5.8h0.1l8.8,15.2
		h5.4V0.3z M72.6,5.3c0.9-1.1,2.1-1.7,3.8-1.7c3.4,0,5.1,2.3,5.1,6.8c0,4.5-1.7,6.8-5.1,6.8c-1.7,0-3-0.6-3.8-1.7
		c-0.9-1.1-1.3-2.8-1.3-5.1S71.8,6.4,72.6,5.3 M83.6,2.7c-1.6-1.8-4-2.7-7.1-2.7S71,0.9,69.3,2.6c-1.7,1.8-2.5,4.3-2.5,7.7
		c0,3.4,0.8,5.9,2.5,7.7c1.7,1.8,4,2.7,7.1,2.7c3.1,0,5.5-0.9,7.1-2.7c1.7-1.8,2.5-4.4,2.5-7.7C86,7,85.2,4.5,83.6,2.7 M62.7,0.3
		h-4.3v20.1h4.3V0.3z M49.9,3.9h5.5V0.3H40.1v3.6h5.5v16.6h4.3V3.9z M28.1,12.1c1.4-4.6,2.3-7.5,2.6-8.7c0.1,0.3,0.2,0.8,0.4,1.3
		c0.2,0.6,0.9,3,2.3,7.4H28.1z M40.4,20.4L33.3,0.2h-5.2L21,20.4h4.6l1.5-4.8h7.3l1.5,4.8H40.4z M17.9,0.3H14v9.5
		c0,1.1,0.1,2.9,0.2,5.5h-0.1L5.4,0.3H0v20.1h3.8V11c0-1.1-0.1-3.1-0.3-5.8h0.1l8.8,15.2h5.4V0.3z M173.4,16.9h11.8v3.5h-11.8V16.9z
		 M196.9,16.9h11.8v3.5h-11.8V16.9z M220.5,16.9h11.8v3.5h-11.8V16.9z"/>
        <path class="st1" d="M227.2,46.3c-0.8,1-2,1.4-3.6,1.4h-1.2V36.4h1.6c1.5,0,2.6,0.4,3.3,1.3c0.7,0.9,1.1,2.3,1.1,4.1
		C228.4,43.8,228,45.3,227.2,46.3 M231.4,34.5c-1.8-1.7-4.3-2.5-7.5-2.5h-7v20.1h6.5c3.4,0,6-0.9,7.8-2.7s2.8-4.4,2.8-7.8
		C234,38.6,233.1,36.2,231.4,34.5 M212.6,32h-4.8v9.1c0,1.2,0.1,2.9,0.2,4.9h-0.1l-7.3-14h-7.1v20.1h4.8v-9.1c0-1.2-0.1-2.9-0.3-5.1
		h0.1l7.4,14.2h7.1V32z M178.9,43.9c0.8-3.2,1.4-5.3,1.6-6.3c0.2-1.1,0.4-1.8,0.5-2.3c0.1,0.5,0.3,1.3,0.6,2.5
		c0.3,1.2,0.5,2.1,0.7,2.8l0.9,3.3H178.9z M191.2,52.2L184.6,32h-7.3l-6.6,20.2h6l1-3.8h6.5l1,3.8H191.2z M166,36.5h4.9V32h-15.3
		v4.4h4.9v15.7h5.4V36.5z M153,42.7c-0.7-0.9-1.9-1.7-3.6-2.5c-1.8-0.8-2.9-1.4-3.3-1.7c-0.4-0.3-0.6-0.7-0.6-1.1
		c0-0.4,0.2-0.7,0.5-0.9c0.3-0.2,0.8-0.4,1.5-0.4c1.4,0,3,0.4,4.9,1.3l1.7-4.2c-2.2-1-4.3-1.4-6.4-1.4c-2.4,0-4.2,0.5-5.6,1.6
		c-1.3,1-2,2.5-2,4.3c0,1,0.2,1.8,0.5,2.6c0.3,0.7,0.8,1.4,1.5,1.9c0.7,0.6,1.6,1.1,3,1.7c1.4,0.7,2.3,1.1,2.7,1.3
		c0.3,0.2,0.6,0.4,0.7,0.6c0.2,0.2,0.2,0.4,0.2,0.7c0,0.4-0.2,0.8-0.6,1.1c-0.4,0.3-1,0.4-1.8,0.4c-0.9,0-2-0.1-3.1-0.4
		s-2.2-0.7-3.2-1.2v4.8c1,0.5,1.9,0.8,2.8,1c0.9,0.2,2,0.3,3.4,0.3c1.6,0,3-0.3,4.2-0.8c1.2-0.5,2.1-1.3,2.7-2.3c0.6-1,1-2.1,1-3.3
		C154,44.7,153.7,43.6,153,42.7 M137.3,47.7h-6.5v-3.8h6v-4.4h-6v-3.2h6.5V32h-12v20.1h12V47.7z M113.6,43.7c0.9,0,1.5,0.2,2,0.5
		c0.5,0.4,0.7,0.9,0.7,1.5c0,1.4-0.8,2.1-2.5,2.1h-1.9v-4.2H113.6z M111.8,36.2h1.5c1.7,0,2.6,0.6,2.6,1.7c0,0.6-0.2,1.1-0.6,1.4
		c-0.4,0.3-1,0.5-1.8,0.5h-1.6V36.2z M106.4,52.2h7.8c2.4,0,4.2-0.5,5.6-1.6c1.4-1.1,2.1-2.5,2.1-4.3c0-1.2-0.3-2.2-0.8-3
		c-0.6-0.8-1.5-1.3-2.7-1.7v-0.1c0.9-0.2,1.7-0.7,2.3-1.5s0.9-1.8,0.9-2.9c0-1.7-0.7-3-2-3.8c-1.3-0.8-3.4-1.2-6.1-1.2h-7V52.2z
		 M102,32h-4.8v9.1c0,1.2,0.1,2.9,0.2,4.9h-0.1L90,32h-7.1v20.1h4.8v-9.1c0-1.2-0.1-2.9-0.3-5.1h0.1l7.4,14.2h7.1V32z M79.3,47.7
		h-6.5v-3.8h6v-4.4h-6v-3.2h6.5V32H67.4v20.1h11.9V47.7z M54.6,44.6h3.6v3.2C57.5,47.9,56.8,48,56,48c-1.5,0-2.6-0.5-3.4-1.5
		c-0.8-1-1.2-2.4-1.2-4.3c0-1.9,0.4-3.4,1.3-4.4c0.9-1,2.1-1.5,3.7-1.5c1.7,0,3.3,0.4,4.8,1.1l1.7-4.3c-0.8-0.4-1.8-0.7-2.9-0.9
		s-2.3-0.4-3.6-0.4c-3.3,0-5.9,0.9-7.8,2.7c-1.9,1.8-2.8,4.3-2.8,7.6c0,3.3,0.8,5.9,2.5,7.7c1.7,1.8,4.1,2.7,7.2,2.7
		c2.8,0,5.4-0.4,7.8-1.2V40.4h-8.7V44.6z M43,47.7h-6.5v-3.8h6v-4.4h-6v-3.2H43V32H31v20.1H43V47.7z M28.4,32h-5.2L21,42.2
		c-0.5,2.5-0.9,4.3-1,5.3c-0.1-0.8-0.3-2-0.6-3.6c-0.3-1.6-0.6-3-0.9-4.2L16.8,32h-5L10,39.7c-0.3,1.1-0.6,2.4-0.9,4
		c-0.3,1.6-0.5,2.9-0.6,3.8c-0.2-1.3-0.5-3.1-1-5.3L5.2,32H0l5,20.1h6.4c1.2-5.3,1.8-8.3,2-9c0.2-0.7,0.3-1.6,0.5-2.4
		c0.2-0.9,0.3-1.6,0.4-2.2c0.1,0.7,0.2,1.6,0.4,2.7c0.2,1.1,0.3,1.8,0.4,2.2l1.9,8.8h6.4L28.4,32z"/>
</g>
</svg>
